<svg width="181" height="149" viewBox="0 0 181 149" fill="none" xmlns="http://www.w3.org/2000/svg">
<path d="M181 82C181 116.242 173.116 149 127 149C80.8842 149 37.5 132.242 37.5 98C37.5 63.7583 63.3842 20 109.5 20C155.616 20 181 47.7583 181 82Z" fill="#265980"/>
<path d="M76 14C76 21.732 59.9558 28 52.5 28C45.0442 28 39 21.732 39 14C39 6.26801 45.0442 0 52.5 0C59.9558 0 76 6.26801 76 14Z" fill="#265980"/>
<path d="M36.7379 43.1041C36.7379 56.359 34.9411 69 25 69C15.0589 69 0.737854 56.359 0.737854 43.1041C0.737854 29.8493 9.55887 7.5 19.5 7.5C29.4411 7.5 36.7379 29.8493 36.7379 43.1041Z" fill="#265980"/>
</svg>
