<svg width="185" height="138" viewBox="0 0 185 138" fill="none" xmlns="http://www.w3.org/2000/svg">
<path d="M142 57C142 91.2417 134.116 124 88 124C41.8842 124 0.797485 91.2417 0.797485 57C0.797485 22.7583 18.6817 0.5 64.7975 0.5C110.913 0.5 142 22.7583 142 57Z" fill="#803C26"/>
<path d="M184.5 55.5C184.5 63.232 174.956 61 167.5 61C160.044 61 154 54.732 154 47C154 39.268 167.044 34 174.5 34C181.956 34 184.5 47.768 184.5 55.5Z" fill="#803C26"/>
<path d="M173.013 101.994C169.437 114.757 160.2 136.72 150.628 134.038C141.055 131.355 141.954 112.767 145.531 100.004C149.107 87.241 152.354 70.6523 161.926 73.3347C171.498 76.0171 176.59 89.2304 173.013 101.994Z" fill="#803C26"/>
</svg>
