<svg width="173" height="166" viewBox="0 0 173 166" fill="none" xmlns="http://www.w3.org/2000/svg">
<path d="M172.5 96C172.5 130.242 151.116 129 105 129C58.8842 129 36.5 100.242 36.5 66C36.5 31.7583 41.3842 0 87.5 0C133.616 0 172.5 61.7583 172.5 96Z" fill="#E88565"/>
<path d="M90 144.019C90 151.751 84.9558 165.019 77.5 165.019C70.0442 165.019 64 158.751 64 151.019C64 143.287 70.0442 137.019 77.5 137.019C84.9558 137.019 90 136.287 90 144.019Z" fill="#E88565"/>
<path d="M40.5385 111.209C46.7582 122.914 68.2545 131.02 59.4758 135.685C50.6971 140.35 22.9267 143.623 16.707 131.918C10.4872 120.213 7.78957 96.3377 16.5683 91.6729C25.347 87.0081 34.3188 99.5045 40.5385 111.209Z" fill="#E88565"/>
</svg>
